<?xml version="1.0" standalone="no"?>
<!DOCTYPE svg PUBLIC "-//W3C//DTD SVG 1.1//EN" "http://www.w3.org/Graphics/SVG/1.1/DTD/svg11.dtd" >
<svg xmlns="http://www.w3.org/2000/svg" xmlns:xlink="http://www.w3.org/1999/xlink" version="1.1" viewBox="-10 0 584 1000">
   <path fill="currentColor"
d="M534 764l-77 54l-51 -77c-32 46 -82 75 -152 75c-130 0 -214 -131 -214 -251c0 -90 40 -166 103 -220l-102 -153l43 -77h353v82h-271l-4 6l231 348l3 -1c15 -43 31 -138 33 -210h92c1 108 -25 232 -62 312zM136 564c0 77 58 164 120 164c45 0 85 -43 96 -68l-158 -238
c-40 36 -58 84 -58 142z" />
</svg>
