<?xml version="1.0" standalone="no"?>
<!DOCTYPE svg PUBLIC "-//W3C//DTD SVG 1.1//EN" "http://www.w3.org/Graphics/SVG/1.1/DTD/svg11.dtd" >
<svg xmlns="http://www.w3.org/2000/svg" xmlns:xlink="http://www.w3.org/1999/xlink" version="1.1" viewBox="-10 0 1013 1000">
   <path fill="currentColor"
d="M50 545c0 -222 171 -446 452 -446s459 224 459 446c0 100 -41 227 -166 227c-71 0 -113 -40 -139 -99h-6c-25 59 -83 99 -165 99c-139 0 -232 -120 -232 -227s93 -229 232 -229c49 0 100 23 127 53l6 -3v-46h90v242c0 74 34 129 85 129s80 -59 80 -146
c0 -157 -138 -366 -371 -366s-362 209 -362 366c0 174 129 360 362 360c91 0 186 -21 281 -56l31 84c-80 31 -205 58 -312 58c-281 0 -452 -216 -452 -446zM343 545c0 67 60 145 140 145s135 -78 135 -145s-55 -147 -135 -147s-140 80 -140 147z" />
</svg>
