<?xml version="1.0" standalone="no"?>
<!DOCTYPE svg PUBLIC "-//W3C//DTD SVG 1.1//EN" "http://www.w3.org/Graphics/SVG/1.1/DTD/svg11.dtd" >
<svg xmlns="http://www.w3.org/2000/svg" xmlns:xlink="http://www.w3.org/1999/xlink" version="1.1" viewBox="-10 0 560 1000">
   <path fill="currentColor"
d="M40 641c0 -106 84 -163 142 -198v-2c-58 -34 -131 -77 -131 -176c0 -95 104 -166 223 -166c121 0 225 70 225 166c0 98 -72 141 -132 176v2c58 35 143 92 143 198c0 91 -94 175 -234 175c-141 0 -236 -83 -236 -175zM140 629c0 53 51 97 136 97c86 0 134 -44 134 -97
c0 -49 -48 -95 -136 -137c-74 35 -134 88 -134 137zM141 269c0 59 56 89 133 139c76 -49 135 -80 135 -139c0 -38 -50 -84 -135 -84s-133 46 -133 84z" />
</svg>
