<?xml version="1.0" standalone="no"?>
<!DOCTYPE svg PUBLIC "-//W3C//DTD SVG 1.1//EN" "http://www.w3.org/Graphics/SVG/1.1/DTD/svg11.dtd" >
<svg xmlns="http://www.w3.org/2000/svg" xmlns:xlink="http://www.w3.org/1999/xlink" version="1.1" viewBox="-10 0 653 1000">
   <path fill="currentColor"
d="M623 284c-28 -104 -104 -185 -232 -185c-103 0 -203 85 -236 237h-115v85h104c-1 10 -1 19 -1 29c0 14 0 27 1 41h-104v85h115c33 165 133 239 236 239c105 0 195 -59 232 -184l-97 -44c-18 61 -65 128 -135 128c-53 0 -102 -48 -125 -139h150v-85h-272c2 31 6 60 11 85
h111c-6 -24 -11 -54 -13 -85c-1 -14 -1 -27 -1 -41c0 -10 0 -19 1 -29h163v-85h-261c-6 27 -10 55 -11 85h109c2 -31 7 -60 14 -85c23 -83 71 -141 124 -141c63 0 97 40 119 89h113z" />
</svg>
