<?xml version="1.0" standalone="no"?>
<!DOCTYPE svg PUBLIC "-//W3C//DTD SVG 1.1//EN" "http://www.w3.org/Graphics/SVG/1.1/DTD/svg11.dtd" >
<svg xmlns="http://www.w3.org/2000/svg" xmlns:xlink="http://www.w3.org/1999/xlink" version="1.1" viewBox="-10 0 554 1000">
   <path fill="currentColor"
d="M463 300v86h-299l-14 175l2 1c30 -21 70 -34 114 -34c138 0 228 112 228 236c0 120 -89 237 -236 237c-106 0 -190 -70 -218 -179h100c13 35 57 89 118 89c72 0 136 -60 136 -147c0 -84 -63 -146 -135 -146c-56 0 -96 39 -114 64l-87 -24l20 -358h385z" />
</svg>
