<?xml version="1.0" standalone="no"?>
<!DOCTYPE svg PUBLIC "-//W3C//DTD SVG 1.1//EN" "http://www.w3.org/Graphics/SVG/1.1/DTD/svg11.dtd" >
<svg xmlns="http://www.w3.org/2000/svg" xmlns:xlink="http://www.w3.org/1999/xlink" version="1.1" viewBox="-10 0 610 1000">
   <path fill="currentColor"
d="M184 985h-104v-624c0 -137 70 -249 233 -249c141 0 201 81 201 173c0 64 -49 124 -112 143c97 17 157 96 157 178c0 109 -66 194 -240 194h-78v-87c147 0 217 -25 217 -107c0 -81 -86 -115 -207 -115v-98c97 0 167 -45 167 -104c0 -45 -32 -93 -105 -93
c-84 0 -134 66 -133 165z" />
</svg>
