<?xml version="1.0" standalone="no"?>
<!DOCTYPE svg PUBLIC "-//W3C//DTD SVG 1.1//EN" "http://www.w3.org/Graphics/SVG/1.1/DTD/svg11.dtd" >
<svg xmlns="http://www.w3.org/2000/svg" xmlns:xlink="http://www.w3.org/1999/xlink" version="1.1" viewBox="-10 0 567 1000">
   <path fill="currentColor"
d="M267 433c12 -18 21 -45 21 -65c0 -18 -13 -32 -31 -32c-19 0 -31 14 -31 41c0 25 8 51 51 114c43 60 65 126 65 182c0 76 -38 142 -116 142c-55 0 -97 -34 -97 -93c0 -52 55 -105 120 -116l12 51c-42 9 -79 34 -79 65c0 24 21 40 44 40c41 0 64 -34 64 -89
c0 -48 -14 -94 -51 -148c-42 -60 -65 -96 -65 -148c0 -58 38 -94 83 -94c48 0 83 31 83 85c0 35 -11 66 -28 92zM92 538c17 -21 24 -50 24 -64s-7 -29 -16 -29c-12 0 -21 15 -21 32c0 21 5 46 13 61zM231 566c-12 17 -57 50 -99 50c-9 0 -26 -2 -32 -7c-11 16 -41 44 -54 55
l-36 -38c13 -12 40 -38 49 -50c-19 -25 -28 -61 -28 -99c0 -52 27 -84 66 -84c41 0 67 26 67 71c0 49 -21 87 -35 104c16 2 53 -24 64 -37zM537 566c0 14 -5 41 -19 67c-12 24 -20 37 -20 49c0 15 8 24 17 35l-37 37c-20 -19 -31 -46 -31 -72c0 -22 9 -40 23 -64
c8 -13 13 -28 13 -42c0 -19 -9 -27 -25 -27s-31 11 -37 19c3 46 1 111 -11 148l-51 -11c6 -29 8 -60 8 -90c0 -76 -9 -148 -9 -205c0 -35 4 -59 8 -81l52 9c-12 54 -6 136 0 176c13 -11 34 -20 56 -20c30 0 63 16 63 72z" />
</svg>
