<?xml version="1.0" standalone="no"?>
<!DOCTYPE svg PUBLIC "-//W3C//DTD SVG 1.1//EN" "http://www.w3.org/Graphics/SVG/1.1/DTD/svg11.dtd" >
<svg xmlns="http://www.w3.org/2000/svg" xmlns:xlink="http://www.w3.org/1999/xlink" version="1.1" viewBox="-10 0 751 1000">
   <path fill="currentColor"
d="M357 300c16 -23 28 -60 28 -87c0 -24 -18 -43 -42 -43c-26 0 -41 19 -41 56c0 33 10 68 68 153c58 80 87 170 87 246c0 102 -51 191 -155 191c-75 0 -131 -46 -131 -126c0 -69 74 -141 162 -155l15 68c-56 13 -105 46 -105 87c0 33 28 54 59 54c55 0 86 -45 86 -119
c0 -65 -19 -126 -69 -200c-57 -81 -88 -130 -88 -199c0 -79 52 -127 112 -127c65 0 112 42 112 114c0 47 -14 90 -38 124zM121 443c23 -29 32 -68 32 -87s-9 -39 -21 -39c-16 0 -28 20 -28 43c0 29 7 62 17 83zM308 481c-16 23 -77 67 -133 67c-12 0 -35 -3 -43 -9
c-15 21 -55 59 -73 74l-49 -51c18 -17 54 -52 67 -68c-25 -35 -38 -83 -38 -134c0 -70 37 -114 88 -114c56 0 91 36 91 97c0 65 -28 116 -47 140c22 3 72 -33 86 -51zM721 481c0 19 -6 55 -26 90c-17 32 -27 50 -27 66c0 20 10 33 23 47l-50 50c-27 -26 -42 -62 -42 -97
c0 -30 12 -53 31 -87c11 -16 17 -37 17 -56c0 -27 -11 -37 -33 -37s-42 15 -50 26c4 62 1 150 -14 200l-70 -15c8 -39 12 -81 12 -122c0 -102 -13 -200 -13 -277c0 -46 5 -79 12 -109l69 13c-17 72 -8 183 0 236c18 -14 46 -27 76 -27c40 0 85 22 85 99z" />
</svg>
