<?xml version="1.0" standalone="no"?>
<!DOCTYPE svg PUBLIC "-//W3C//DTD SVG 1.1//EN" "http://www.w3.org/Graphics/SVG/1.1/DTD/svg11.dtd" >
<svg xmlns="http://www.w3.org/2000/svg" xmlns:xlink="http://www.w3.org/1999/xlink" version="1.1" viewBox="-10 0 612 1000">
   <path fill="currentColor"
d="M542 647c0 224 -97 354 -252 354c-96 0 -182 -58 -218 -157h97c23 39 64 69 121 69c97 0 158 -103 162 -250l-3 -2c-39 59 -91 90 -161 90c-125 0 -228 -94 -228 -228c0 -128 77 -239 228 -239c164 0 254 148 254 363zM422 529c-12 -81 -66 -155 -134 -155
c-76 0 -132 70 -132 147c0 80 61 135 132 135c64 0 110 -46 134 -127z" />
</svg>
