<?xml version="1.0" standalone="no"?>
<!DOCTYPE svg PUBLIC "-//W3C//DTD SVG 1.1//EN" "http://www.w3.org/Graphics/SVG/1.1/DTD/svg11.dtd" >
<svg xmlns="http://www.w3.org/2000/svg" xmlns:xlink="http://www.w3.org/1999/xlink" version="1.1" viewBox="-10 0 591 1000">
   <path fill="currentColor"
d="M290 720c79 0 149 -87 149 -171c0 -83 -70 -169 -149 -169s-148 86 -148 169c0 84 69 171 148 171zM290 814c-133 0 -250 -115 -250 -265c0 -156 117 -263 250 -263s251 107 251 263c0 150 -118 265 -251 265zM185 238c-36 0 -63 -28 -63 -63c0 -37 27 -65 63 -65
s63 28 63 65c0 35 -27 63 -63 63zM394 238c-36 0 -63 -28 -63 -63c0 -37 27 -65 63 -65s63 28 63 65c0 35 -27 63 -63 63z" />
</svg>
