<?xml version="1.0" standalone="no"?>
<!DOCTYPE svg PUBLIC "-//W3C//DTD SVG 1.1//EN" "http://www.w3.org/Graphics/SVG/1.1/DTD/svg11.dtd" >
<svg xmlns="http://www.w3.org/2000/svg" xmlns:xlink="http://www.w3.org/1999/xlink" version="1.1" viewBox="-10 0 502 1000">
   <path fill="currentColor"
d="M241 816c-48 0 -87 -40 -87 -87c0 -49 39 -89 87 -89s87 40 87 89c0 47 -39 87 -87 87zM194 573c-10 -103 25 -158 95 -212c46 -35 73 -64 73 -111c0 -51 -42 -77 -99 -77c-59 0 -117 33 -163 88l-65 -59c55 -72 133 -118 228 -118c94 0 200 46 200 170
c0 78 -75 134 -118 170c-46 38 -72 73 -72 149h-79z" />
</svg>
