<?xml version="1.0" standalone="no"?>
<!DOCTYPE svg PUBLIC "-//W3C//DTD SVG 1.1//EN" "http://www.w3.org/Graphics/SVG/1.1/DTD/svg11.dtd" >
<svg xmlns="http://www.w3.org/2000/svg" xmlns:xlink="http://www.w3.org/1999/xlink" version="1.1" viewBox="-10 0 557 1000">
   <path fill="currentColor"
d="M121 636c39 50 119 88 176 88c60 0 98 -22 98 -58c0 -42 -45 -59 -121 -73c-120 -22 -210 -52 -210 -151c0 -96 105 -158 223 -158s212 74 230 155h-103c-29 -41 -69 -69 -132 -69c-72 0 -116 33 -116 67c0 35 23 53 114 66c117 17 222 69 222 168
c0 89 -106 145 -222 145c-109 0 -184 -49 -230 -114z" />
</svg>
