<?xml version="1.0" standalone="no"?>
<!DOCTYPE svg PUBLIC "-//W3C//DTD SVG 1.1//EN" "http://www.w3.org/Graphics/SVG/1.1/DTD/svg11.dtd" >
<svg xmlns="http://www.w3.org/2000/svg" xmlns:xlink="http://www.w3.org/1999/xlink" version="1.1" viewBox="-10 0 550 1000">
   <path fill="currentColor"
d="M121 592c26 59 80 126 154 126c65 0 117 -29 117 -85c0 -40 -18 -86 -125 -129c-146 -57 -215 -126 -215 -223c0 -107 86 -182 214 -182c142 0 216 97 234 186h-101c-19 -51 -55 -99 -132 -99c-62 0 -114 35 -114 86c0 50 31 94 135 138c138 59 211 116 213 222
c2 105 -88 184 -214 184c-131 0 -208 -67 -253 -170z" />
</svg>
