<?xml version="1.0" standalone="no"?>
<!DOCTYPE svg PUBLIC "-//W3C//DTD SVG 1.1//EN" "http://www.w3.org/Graphics/SVG/1.1/DTD/svg11.dtd" >
<svg xmlns="http://www.w3.org/2000/svg" xmlns:xlink="http://www.w3.org/1999/xlink" version="1.1" viewBox="-10 0 647 1000">
   <path fill="currentColor"
d="M55 479c0 -200 89 -333 211 -353c112 -18 167 22 262 -18l27 91c-110 51 -176 3 -269 23c-95 20 -130 99 -137 179c36 -57 108 -95 180 -95c140 0 258 93 258 256c0 153 -118 254 -258 254c-147 0 -274 -113 -274 -337zM329 724c90 0 151 -79 151 -162
s-61 -162 -151 -162s-152 79 -152 162s62 162 152 162z" />
</svg>
