<?xml version="1.0" standalone="no"?>
<!DOCTYPE svg PUBLIC "-//W3C//DTD SVG 1.1//EN" "http://www.w3.org/Graphics/SVG/1.1/DTD/svg11.dtd" >
<svg xmlns="http://www.w3.org/2000/svg" xmlns:xlink="http://www.w3.org/1999/xlink" version="1.1" viewBox="-10 0 584 1000">
   <path fill="currentColor"
d="M438 479c-16 -58 -72 -105 -145 -105c-61 0 -118 40 -143 105h288zM199 238c-36 0 -63 -28 -63 -63c0 -37 27 -65 63 -65s63 28 63 65c0 35 -27 63 -63 63zM408 238c-36 0 -63 -28 -63 -63c0 -37 27 -65 63 -65s63 28 63 65c0 35 -27 63 -63 63zM40 549
c0 -143 105 -265 253 -265c158 0 261 124 252 290h-406c10 77 75 148 156 148c68 0 125 -44 163 -91l73 67c-44 63 -124 118 -236 118c-143 0 -255 -114 -255 -267z" />
</svg>
