<?xml version="1.0" standalone="no"?>
<!DOCTYPE svg PUBLIC "-//W3C//DTD SVG 1.1//EN" "http://www.w3.org/Graphics/SVG/1.1/DTD/svg11.dtd" >
<svg xmlns="http://www.w3.org/2000/svg" xmlns:xlink="http://www.w3.org/1999/xlink" version="1.1" viewBox="-10 0 545 1000">
   <path fill="currentColor"
d="M41 571c0 -158 117 -286 258 -286c102 0 184 62 184 158c0 118 -112 215 -315 245c24 27 59 37 96 37c54 0 117 -25 166 -62l56 76c-65 49 -148 76 -222 76c-100 0 -223 -64 -223 -244zM137 603c173 -22 250 -98 250 -160c0 -38 -30 -70 -86 -70c-87 0 -166 90 -166 198
c0 11 1 22 2 32z" />
</svg>
