<?xml version="1.0" standalone="no"?>
<!DOCTYPE svg PUBLIC "-//W3C//DTD SVG 1.1//EN" "http://www.w3.org/Graphics/SVG/1.1/DTD/svg11.dtd" >
<svg xmlns="http://www.w3.org/2000/svg" xmlns:xlink="http://www.w3.org/1999/xlink" version="1.1" viewBox="-10 0 532 1000">
   <path fill="currentColor"
d="M169 591v-90h77c79 0 124 -26 124 -65c0 -37 -41 -66 -116 -66c-68 0 -120 40 -135 79h-99c19 -90 114 -164 236 -164c158 0 212 75 212 150c0 44 -19 80 -98 105c79 14 112 65 112 110c0 114 -81 165 -224 165c-129 0 -204 -70 -237 -142l76 -55c28 55 75 107 164 107
c74 0 118 -32 118 -75c0 -38 -61 -59 -133 -59h-77z" />
</svg>
